<svg xmlns="http://www.w3.org/2000/svg" width="263" height="104.47" viewBox="0 0 263 104.47">
  <title>logo-1</title>
  <polygon points="59.69 62.39 51.33 62.39 51.33 35.73 28.19 35.73 35.62 27.19 59.69 27.19 59.69 62.39" fill="#a59d96"/>
  <g>
    <path d="M119.64,27.21c4.84,0,10.94,1.71,14.39,5.16,6.3,6.3,6.3,18.57,0,24.85-3.45,3.44-9.55,5.17-14.39,5.17H108.22V27.21Zm0,28.11c2.88,0,7.08-.81,9.14-2.86a10.51,10.51,0,0,0,2.86-7.68,10.51,10.51,0,0,0-2.88-7.68c-2.06-2.08-6.3-2.89-9.19-2.89h-4.34V55.32h4.41Z" fill="#cb142a"/>
    <polygon points="177.75 50.05 194.95 26.47 194.95 62.39 187.88 62.39 187.88 47.84 177.75 61.82 167.62 47.84 167.62 62.39 160.56 62.39 160.56 26.47 177.75 50.05" fill="#cb142a"/>
    <polygon points="252.62 27.21 262.98 27.21 262.98 34.36 252.62 34.36 252.62 62.39 245.55 62.39 245.55 34.36 235.18 34.36 235.18 27.21 245.55 27.21 252.62 27.21" fill="#cb142a"/>
    <polygon points="199.13 62.39 220.61 27.16 239.38 62.39 230.24 62.39 219.99 43.03 207.62 62.39 199.13 62.39" fill="#cb142a"/>
    <path d="M84.54,26.07A18.12,18.12,0,0,0,66.07,44.66c0,10.77,7.88,18.59,18.72,18.59,6.67,0,12-2.66,15.59-8.07a24.27,24.27,0,0,0,1.45-2.78H93.26C91.49,54.69,88.44,56,84.85,56,79.46,56,75.41,53.1,74,48.4h28.18s.06-2.6.06-3.61c0-12.16-9.12-18.72-17.7-18.72M73.63,41.36l.09-.32a10.75,10.75,0,0,1,10.82-8c5,0,8.79,3,10.08,8l.08.31Z" fill="#cb142a"/>
    <polygon points="151.85 31.59 151.85 27.21 144.78 27.21 144.78 34.32 151.85 31.59" fill="#cb142a"/>
  </g>
  <polygon points="144.78 37.5 144.78 62.39 151.85 62.39 151.85 34.77 144.78 37.5" fill="#cb142a"/>
  <path d="M48.64,48.39c-4.87,3.63-10,6.12-16.7,6.12A22.57,22.57,0,1,1,47.78,15.86H59.54a31.77,31.77,0,1,0-10.9,43.46Z" fill="#cb142a"/>
  <g>
    <path d="M107.19,81.84c.08-.27.58-1.4-.18-1.56-1-.22-1.31.31-2,1.27s-3.75,5.78-4.8,5,2.52-6.06,3-6.61.75-1.45.37-1.85-1.4.09-1.4.09c-1.85.72-6.41,3-6.41,3a50.52,50.52,0,0,0,5-7.16s3.19-5,1.9-7.31-4.93-1.44-4.93-1.44c-8.5,1.82-16.39,12.6-16.39,12.6-4.61.33-7.19.59-7.56.72s-.45,1.13.6,1,6.27-.5,6.27-.5c-.72,1-3,4.74-3.75,6.19S76.78,87,76.82,87c.5.27.78-.21,1.45-1.58a62.64,62.64,0,0,1,4-6.43c1-.07,3.9-.09,7.42-.18s6.93-.57,6.93-.57a35.33,35.33,0,0,1-3.29,4.26A28.91,28.91,0,0,1,89.5,85.2a17.22,17.22,0,0,0-6.66,5.38s-.61.94-.1,1.4c.81.74,2.84-.88,4.74-2.31s5.83-5.59,7-6.49a79.39,79.39,0,0,1,7.12-3.62c-.86,1.4-2.34,4.52-2.45,4.82s-1.27,2.79.63,3.43c2.52.85,5.68-4.43,5.68-4.43a7.7,7.7,0,0,0,.32,4.28.89.89,0,0,0,1.27.48c.47-.27,0-.79,0-.79-1-1.65.06-5.23.13-5.51m-18.25-4.1c-1.85.05-4.41,0-5.89.09,0,0,4.86-6.06,8.67-8.59s6.89-3.56,9-2.77.47,4.12.47,4.12-3.12,6.24-4.13,6.49a72.92,72.92,0,0,1-8.13.66M84.5,90.47c.47-1.57,5.73-4.66,5.73-4.66a23.53,23.53,0,0,1-5.73,4.66"/>
    <path d="M118.7,82.33a6,6,0,0,0-1.8.14c-1.81.33-3.83,2-3.06,3.41s4.51.33,5.55-.19c1.25-.62,1.07.37.92.6s-1.56,1.6-5.22,1.62c-3.84,0-2.85-3.55-2.85-3.55s.41-2.66,4.44-3.37c1.88-.33,2.39.21,2.48.52s-.08.88-.46.82"/>
    <path d="M144.81,87a6.26,6.26,0,0,1-.08-4c.44-1.71.2-1.76-.26-1.84,0,0-.63-.16-1.39.83s-3.56,4.36-5,4.28c0,0-1,.26,2.66-4.74,0,0,.68-.66-.15-1s-1.58.66-2.2,1.65-1.1,1.83-1.1,1.83-3.94,2.41-6.43,2.41c0,0-1.24,0-.59-1.4s2.51-3.59,4.31-4c0,0,.53-.14.19.54s-1.61,2.23-3.05,2.08c0,0-.75.09-.32.7s1.23.76,2.7-.23,2.8-2.65,1.37-3.87c-.86-.73-2.1-.1-2.55.16a10.17,10.17,0,0,0-3,2.73S129.74,82,128,81.93v-.28c0-.32-.62-1-2.48-.52-3.75.88-4.39,3.58-4.39,3.58s-.89,3.31,2.59,3.22a8.1,8.1,0,0,0,4.78-2.24s.51,2,2.14,2.12,3.78-.89,5.88-2.28c0,0-.9,1.83,1.57,1.94s4.36-2.88,5-3.42c0,0-.51,2.94.82,3.55s1.06-.4.87-.62m-17.43-2c-.68.54-3.91,2.46-4.68,1-.67-1.24,1-3,2.48-3.42.68.83,2.93.68,2.93.68.77.49-.73,1.71-.73,1.71"/>
    <path d="M178,84.17c-.05-.33-.3-.26-.3-.26s-6.33,2.82-8,2.47c0,0-.83,0-.18-1.45s2.51-3.59,4.31-4c0,0,.53-.14.19.54s-1.49,2.26-2.92,2.11c0,0-.64.15-.46.66.26.7,1.28.67,2.7-.22s2.81-2.65,1.37-3.87c-.86-.73-2.1-.1-2.55.16A13.34,13.34,0,0,0,168.83,83a4.08,4.08,0,0,0-1.08,2.85,2.11,2.11,0,0,0,2.19,1.88c1.63.14,3.58-.49,7-2.29,1-.56,1.13-1,1.08-1.31"/>
    <path d="M259.81,84.17c-.05-.33-.31-.26-.31-.26s-6.33,2.82-8,2.47c0,0-.83,0-.19-1.45s2.51-3.59,4.31-4c0,0,.53-.14.19.54s-1.48,2.26-2.92,2.11c0,0-.64.15-.45.66.26.7,1.28.67,2.7-.22s2.8-2.65,1.37-3.87c-.86-.73-2.1-.1-2.55.16A13,13,0,0,0,250.61,83a4.12,4.12,0,0,0-1.09,2.85,2.11,2.11,0,0,0,2.19,1.88c1.63.14,3.59-.49,7-2.29,1-.56,1.14-1,1.09-1.31"/>
    <path d="M148.34,81.48s-.48-.2-.79.46a45.72,45.72,0,0,1-2,4.65c-.59.81-.21,1.21.15,1.26s.86.13,2-1.61c1.64-2.39,2.6-3.23,4.16-3.82s1.91-.1,2.56-.59c.37-.29.69-1-.24-1.13a7,7,0,0,0-5.51,2.08s-.4.48-.27.07.53-1.22-.15-1.37"/>
    <path d="M163.46,79.87s-5.87,3.56-3.88,7.22c0,0,.93,1.81,3.33.48,2.87-1.59,6.89-7.92,7.83-9.47s3.85-6.54,2.7-6.95c0,0,0-.22-1.17,1.95a66.16,66.16,0,0,1-8.69,12s-1.85,2-2.79,1.66c-.59-.2.31-3.34,2.64-5,1.85-1.34,2.94-1,2.94-1s.66,0-.1-.73c-1.1-1.1-2.81,0-2.81,0"/>
    <path d="M182.82,86.61a4.65,4.65,0,0,1-.83.69c-.35.19-.27.35-.08.46a1.63,1.63,0,0,0,1.94-.11c2-2.05,3.11-4.11,5.24-7.06s4-6,5.7-7.88c1.05-1.2.29-1.19.26-1.21a1.54,1.54,0,0,0-1.41.65s-2,2.38-4.56,6.18c-2.47,3.62-5.46,7.36-6.26,8.28"/>
  </g>
  <g>
    <path d="M219.54,81.16c-.41.6-3.5,3.66-5.46,6.14-1,1.29-1.74,1.07-2.06,1s-.91-.22-.83-3.67a5.12,5.12,0,0,0-.29-2.12s-.33-.62.64-.73c.8-.08.8.83.84,1.21s.29,3.19.25,3.63,3.22-4.33,6.27-6a.56.56,0,0,1,.61.08c.25.19,0,.46,0,.46"/>
    <path d="M262.64,85.11s-.57-.5-1.21.33-.54,1.3,0,1.45,1-.43,1.36-.8a.57.57,0,0,0-.12-1"/>
    <path d="M234,81.06a9.55,9.55,0,0,0-4.79,1.59c-2.17,1.54-3.39,3.48-2,4.55s2.55.49,4.51-.58,2.54-1.89,2.33-1.45c0,0-1,1.34-.37,2a1.41,1.41,0,0,0,1.09.43A12.89,12.89,0,0,1,236.48,84c.39-.41,0-.92-.42-1.12s-.93-.51-3.28,1.21-4.95,2.82-4.59,1.9,1.6-2.7,5.25-3.62c0,0,1.75,0,1.72-.6s-1.21-.72-1.21-.72"/>
    <path d="M246,80.81c-.07,0-3-1.46-5.94,3.9-.75,1.35-.07,1.81.41,1.67,0,0,2.59-.45,6.94-5.21,0,0,1.91-2.11,2.55-1.81s.77.74.37,1.16a18.22,18.22,0,0,0-2.6,4.47,35.39,35.39,0,0,1-15.56,17.36s-7.15,3.84-10.3,1.19c0,0-3.21-2.29,4.35-11a.79.79,0,0,1,.66-.13c.32.13.3.4-.28,1s-5,6.8-3.81,9.14c.88,1.69,6.47-.13,7.65-.8s11.68-6.13,15.81-17.29c0,0-3.13,3-5.8,3.35,0,0-2.1.38-2.08-2.13,0-2.32,2.51-5.88,6.64-6.45,0,0,1.39-.13,1.65.49s0,1.43-.66,1.13"/>
  </g>
  <g>
    <path d="M221.13,81.48a.69.69,0,0,0-.8.46,35.38,35.38,0,0,1-2,4.65c-.59.81-.21,1.21.14,1.26s.87.13,2.06-1.61c1.63-2.39,2.56-3.37,4.22-3.61s1.85.08,2.5-.41c.37-.28.69-1-.24-1.12s-3.87-.26-5.51,1.68c0,0-.4.48-.27.07s.53-1.22-.15-1.37"/>
    <path d="M197.41,73s-1.16,1.79-2.15,3.09c0,0-.33.39,0,.52s.73-.17,1.23-.69,2.43-2.59,1.85-2.92c-.74-.42-.89,0-.89,0"/>
    <path d="M209.26,81.15s-.63-.15-1.4.84-4.4,4.9-5.57,4.78c0,0-1.13.14,2.63-4.66,0,0,.68-.66-.15-1-.47-.18-1.31.58-2.06,1.43h0a8.17,8.17,0,0,0-2.17,4s0,0,0,0c-.09.55,0,1.41,1.71,1.48,2.47.11,5.05-3.84,5.64-4.14,0,0-1.25,4,.18,4.34,1.06.24,1.06-.46.88-.69s0-2.48.55-4.63c.41-1.5.25-1.77-.25-1.85"/>
    <path d="M198.77,86.33c2.86-2,2.4-3.18,2.34-3.48-.43-1.21-2-1-2-1s0-.19,0-.28c0-.32-.6-.91-2.47-.52A6.6,6.6,0,0,0,192,84.58s-1.47,3.69,2.79,3.24a10.27,10.27,0,0,0,4-1.49Zm-.38-1.56c-.68.54-4.14,2.38-4.87,1.32s1.36-3,2.71-3.55c.68.84,3,.64,3,.64,1,.44-.79,1.59-.79,1.59"/>
  </g>
</svg>
